#!OML:ASF F:\VICON\USERDATA\INSTALL\rory3\rory3.ASF
:FULLY-SPECIFIED
:DEGREES
1307
root -0.626113 17.5434 -2.17669 1.28319 11.5795 0.54988
lowerback 3.99721 -4.08078 -6.69888
upperback 0.152196 -5.68084 4.20926
thorax -0.99515 -2.82408 8.40291
lowerneck -22.7775 -2.47215 -10.3936
upperneck 26.5258 -1.00656 4.46712
head 12.7262 -0.901969 3.29994
rclavicle 7.53891e-014 -3.18055e-015
rhumerus -40.4656 -6.21281 -47.7025
rradius 78.4025
rwrist 30.0536
rhand -27.5657 13
rfingers 7.12502
rthumb -0.966452 -16.9776
lclavicle 7.53891e-014 -3.18055e-015
lhumerus -0.658127 -12.6278 75.28
lradius 57.2221
lwrist -12.9124
lhand -18.4432 13.0783
lfingers 7.12502
lthumb 7.84261 42.9128
rfemur -25.1938 -3.69285 18.3417
rtibia 58.8611
rfoot -16.0907 -10.7228
rtoes 0.649171
lfemur -9.94458 7.22288 -22.3924
ltibia 31.7624
lfoot -19.3396 -2.66012
ltoes -7.56238
1308
root -0.668405 17.5171 -2.15219 1.39594 10.988 0.370721
lowerback 3.60424 -3.66941 -6.40019
upperback 0.100155 -5.098 4.06276
thorax -0.981813 -2.52942 8.03737
lowerneck -22.9354 -2.28437 -10.1537
upperneck 26.5003 -0.78488 4.39813
head 12.7241 -0.78625 3.27144
rclavicle -5.87906e-014 -2.38542e-014
rhumerus -39.8702 -5.98873 -48.5039
rradius 78.3265
rwrist 30.3285
rhand -27.4836 13.3955
rfingers 7.12502
rthumb -0.887176 -16.5824
lclavicle -5.87906e-014 -2.38542e-014
lhumerus -1.74104 -11.7411 74.3779
lradius 57.3964
lwrist -12.7282
lhand -18.38 13.4641
lfingers 7.12502
lthumb 7.90358 43.2964
rfemur -23.6963 -3.29293 18.4802
rtibia 56.6197
rfoot -16.9039 -8.25285
rtoes -2.29327
lfemur -10.3959 7.28282 -22.117
ltibia 32.6094
lfoot -19.8502 -1.9168
ltoes -8.61556
1309
root -0.716952 17.4941 -2.12612 1.34423 10.6048 0.15707
lowerback 3.33026 -3.28508 -6.09848
upperback 0.147823 -4.55912 3.89056
thorax -0.916359 -2.26264 7.65048
lowerneck -23.0546 -2.16693 -9.98167
upperneck 26.4062 -0.678332 4.44065
head 12.6978 -0.711283 3.27613
rclavicle 1.83379e-014 -3.57812e-014
rhumerus -39.2963 -5.93415 -49.3494
rradius 78.2798
rwrist 30.7009
rhand -27.2968 13.795
rfingers 7.12502
rthumb -0.706766 -16.1836
lclavicle 1.83379e-014 -3.57812e-014
lhumerus -2.70352 -10.9161 73.3545
lradius 57.5196
lwrist -12.331
lhand -18.3933 13.6496
lfingers 7.12502
lthumb 7.89072 43.4824
rfemur -22.0793 -2.93345 18.7193
rtibia 54.3797
rfoot -17.9263 -6.05903
rtoes -2.98273
lfemur -10.6536 7.21331 -21.7556
ltibia 33.3879
lfoot -20.3496 -1.18087
ltoes -9.74041
1310
root -0.771628 17.4773 -2.10161 1.30288 10.3056 -0.0344381
lowerback 3.09702 -2.95866 -5.90948
upperback 0.205301 -4.10499 3.77368
thorax -0.828121 -2.03959 7.39292
lowerneck -23.3541 -2.03594 -9.88865
upperneck 26.4599 -0.48387 4.42454
head 12.7611 -0.617111 3.29167
rclavicle -2.61402e-014 1.19271e-014
rhumerus -38.5308 -5.68373 -50.2503
rradius 78.2476
rwrist 30.874
rhand -27.1928 13.7339
rfingers 7.12502
rthumb -0.606316 -16.2449
lclavicle -2.61402e-014 1.19271e-014
lhumerus -3.68768 -9.93241 72.3264
lradius 57.6544
lwrist -11.9346
lhand -18.1861 13.3276
lfingers 7.12502
lthumb 8.09072 43.1527
rfemur -20.5977 -2.58463 19.0025
rtibia 52.2302
rfoot -18.9213 -5.0397
rtoes -1.78985
lfemur -10.9453 7.11132 -21.3814
ltibia 34.1763
lfoot -20.781 -0.511877
ltoes -10.6912
1311
root -0.827612 17.4614 -2.07956 1.4495 9.87608 -0.170732
lowerback 2.73272 -2.60897 -5.75365
upperback 0.211719 -3.61619 3.63371
thorax -0.719631 -1.79807 7.12556
lowerneck -23.5399 -1.86548 -9.7555
upperneck 26.4058 -0.23563 4.32493
head 12.7537 -0.504456 3.2734
rclavicle 9.54166e-015 -2.78299e-014
rhumerus -37.7379 -5.33778 -51.1424
rradius 78.1687
rwrist 30.9932
rhand -27.1552 13.8433
rfingers 7.12502
rthumb -0.569992 -16.1357
lclavicle 9.54166e-015 -2.78299e-014
lhumerus -4.47373 -8.99305 71.2128
lradius 57.5475
lwrist -11.4875
lhand -17.948 12.8615
lfingers 7.12502
lthumb 8.32055 42.6776
rfemur -19.4505 -2.18983 19.2765
rtibia 50.2187
rfoot -20.0272 -4.37273
rtoes -0.463747
lfemur -11.459 7.04238 -21.104
ltibia 34.998
lfoot -21.132 0.198294
ltoes -11.5384
1312
root -0.880293 17.4376 -2.064 1.59596 9.38656 -0.29271
lowerback 2.49106 -2.21774 -5.53379
upperback 0.153248 -3.07694 3.45314
thorax -0.755611 -1.52385 6.78961
lowerneck -23.5045 -1.69298 -9.61679
upperneck 26.2725 -0.0162292 4.2371
head 12.6731 -0.401055 3.24975
rclavicle 1.55052e-014 7.95139e-015
rhumerus -36.9972 -4.94297 -52.0043
rradius 78.0164
rwrist 31.1576
rhand -27.1718 13.9793
rfingers 7.12502
rthumb -0.586065 -15.9997
lclavicle 1.55052e-014 7.95139e-015
lhumerus -5.26552 -8.08221 70.1589
lradius 57.3666
lwrist -11.0807
lhand -18.2223 12.9297
lfingers 7.12502
lthumb 8.05582 42.7562
rfemur -18.4506 -1.99651 19.5586
rtibia 48.3663
rfoot -21.2385 -3.37193
rtoes -1.67022
lfemur -12.0156 6.92311 -20.8748
ltibia 35.8963
lfoot -21.4462 1.02864
ltoes -12.7581
1313
root -0.933036 17.4157 -2.05602 1.58677 9.00365 -0.53274
lowerback 2.58189 -1.84056 -5.20079
upperback 0.0719988 -2.56802 3.30643
thorax -0.992646 -1.25819 6.44097
lowerneck -23.5868 -1.49845 -9.44531
upperneck 26.3006 0.249591 4.10292
head 12.6782 -0.284341 3.21607
rclavicle 4.19933e-015 -2.14687e-014
rhumerus -36.2804 -4.4989 -52.8661
rradius 77.8545
rwrist 31.4107
rhand -27.1645 14.0381
rfingers 7.12502
rthumb -0.57893 -15.9408
lclavicle 4.19933e-015 -2.14687e-014
lhumerus -6.33102 -6.881 69.2405
lradius 57.5477
lwrist -10.9346
lhand -18.442 13.3226
lfingers 7.12502
lthumb 7.84376 43.1571
rfemur -17.5061 -2.05406 20.005
rtibia 46.6787
rfoot -21.9208 -2.31367
rtoes -1.80548
lfemur -12.5116 6.64161 -20.4853
ltibia 36.8613
lfoot -21.5392 1.75935
ltoes -13.5068
1314
root -0.98349 17.4101 -2.05105 1.47932 8.62844 -0.885732
lowerback 2.77102 -1.47949 -4.7371
upperback 0.0334351 -2.07929 3.19272
thorax -1.23243 -1.0059 6.05167
lowerneck -23.7044 -1.26052 -9.2422
upperneck 26.3415 0.576205 3.94534
head 12.6917 -0.141156 3.17921
rclavicle -9.16894e-015 -2.26615e-014
rhumerus -35.4952 -4.00997 -53.7641
rradius 77.731
rwrist 31.6288
rhand -27.0944 13.8444
rfingers 7.12502
rthumb -0.511289 -16.1347
lclavicle -9.16894e-015 -2.26615e-014
lhumerus -7.5184 -5.63648 68.2448
lradius 58.0041
lwrist -10.8739
lhand -18.4356 13.8359
lfingers 7.12502
lthumb 7.8499 43.6702
rfemur -16.6604 -2.12096 20.6116
rtibia 45.161
rfoot -22.0511 -1.61163
rtoes 0.100813
lfemur -12.9407 6.22071 -19.9553
ltibia 37.8789
lfoot -21.4885 2.56859
ltoes -14.9394
1315
root -1.0296 17.4135 -2.04427 1.45748 8.13862 -1.15369
lowerback 2.85644 -1.09792 -4.32618
upperback -0.00718187 -1.55996 3.08244
thorax -1.4086 -0.7415 5.68804
lowerneck -23.7003 -1.05729 -9.16775
upperneck 26.3101 0.87806 3.82368
head 12.6549 -0.0154015 3.1702
rclavicle -3.21534e-014 -1.59028e-015
rhumerus -34.6452 -3.40305 -54.548
rradius 77.6064
rwrist 31.8242
rhand -27.1394 13.6531
rfingers 7.12502
rthumb -0.554771 -16.3259
lclavicle -3.21534e-014 -1.59028e-015
lhumerus -8.61885 -4.63748 67.1765
lradius 58.278
lwrist -10.7555
lhand -18.206 14.5247
lfingers 7.12502
lthumb 8.07149 44.3506
rfemur -16.0603 -2.27121 21.1397
rtibia 43.8482
rfoot -22.0994 -1.35417
rtoes 2.21094
lfemur -13.4116 5.7467 -19.5173
ltibia 38.9399
lfoot -21.4633 3.40887
ltoes -16.8117
